<?xml version="1.0" standalone="no"?><!DOCTYPE svg PUBLIC "-//W3C//DTD SVG 1.1//EN" "http://www.w3.org/Graphics/SVG/1.1/DTD/svg11.dtd"><svg t="1546497679830" class="icon" style="" viewBox="0 0 1024 1024" version="1.1" xmlns="http://www.w3.org/2000/svg" p-id="2153" xmlns:xlink="http://www.w3.org/1999/xlink" width="48" height="48"><defs><style type="text/css"></style></defs><path d="M1023.648242 701.277871 1023.648242 197.496221c0-108.597339-88.13141-196.728749-196.792705-196.728749L197.080507 0.767472C88.483168 0.767472 0.351758 88.898882 0.351758 197.496221l0 629.77503c0 108.597339 88.067454 196.728749 196.728749 196.728749l629.77503 0c96.765474 0 177.286116-69.967897 193.722816-162.000625-52.188121-22.576479-278.336644-120.237337-396.143651-176.454687-89.666354 108.597339-183.553807 173.768534-325.088502 173.768534s-235.997752-87.172069-224.677534-193.850728C82.151521 595.430641 130.1825 480.949347 338.80707 500.583849 448.747486 510.880769 499.080882 531.410655 588.747236 561.022297c23.216039-42.53076 42.466804-89.346574 57.112735-139.168322L248.245331 421.853975 248.245331 382.457061l196.728749 0L444.97408 311.721691 205.011055 311.721691 205.011055 268.359503l239.963025 0L444.97408 166.285679c0 0 2.174505-15.989008 19.826369-15.989008L563.164824 150.296671l0 118.062832 255.824121 0 0 43.362188-255.824121 0L563.164824 382.457061l208.688527 0c-19.186809 78.090313-48.286803 149.848979-84.74174 212.525888C747.741927 616.919868 1023.648242 701.277871 1023.648242 701.277871L1023.648242 701.277871 1023.648242 701.277871zM283.676972 791.775654c-149.529199 0-173.19293-94.399101-165.262382-133.859971 7.866592-39.269003 51.164824-90.497783 134.307663-90.497783 95.550309 0 181.123478 24.431204 283.836862 74.444819C464.416714 735.814128 375.773656 791.775654 283.676972 791.775654L283.676972 791.775654z" p-id="2154" ></path></svg>