<svg height="16" viewBox="0 0 17 16" width="17" xmlns="http://www.w3.org/2000/svg"><g fill="#d3d9e8"><path d="m15.5300752 1.46992481v.74045274-.29328446c-.0144987-.24983491-.2211058-.44716828-.4748337-.44716828zm-14.06015039 0h.74124794-.29359943c-.25010321.01448319-.44764851.22086854-.44764851.47432425zm.00181234 12.71804509v-.7404527.2932844c.01449874.249835.22110575.4471683.47483365.4471683zm14.05471335-.0018104h-.7412479.2935994c.2501032-.0144832.4476485-.2208685.4476485-.4743242zm-11.47937516-1.0174436c.40958933 0 .74306029-.3313028.74306029-.7422631v-3.91770103c0-.40914992-.33165862-.74226313-.74306029-.74226313-.40958932 0-.74306028.33130281-.74306028.74226313v3.91951143c.00181235.4091499.33347096.7404527.74306028.7404527zm8.94390846 0c.4095894 0 .7430603-.3313028.7430603-.7422631v-5.91094909c0-.40914993-.3316586-.74226314-.7430603-.74226314-.4095893 0-.7430602.33130282-.7430602.74226314v5.91094909c.0018123.4109603.3334709.7422631.7430602.7422631zm-4.47104804 0c.40958933 0 .74306028-.3313028.74306028-.7422631v-8.47447249c0-.40914992-.33165861-.74226313-.74306028-.74226313-.40958932 0-.74306028.33130281-.74306028.74226313v8.47628289c0 .4091499.33347096.7404527.74306028.7404527z"/><path d="m17 14.5494192v-13.42828573c-.0524971-.61119857-.5521244-1.09220099-1.1694175-1.12113347h-14.67564692c-.62272389.03797388-1.12054095.53525082-1.15493558 1.15729907v13.33606343c.03258439.6220483.52678096 1.1229418 1.1476946 1.1645322h14.7679693c.5756576-.0669063 1.0300288-.5298259 1.0843361-1.1084755zm-15.51741029-.3725056v-12.69593245h14.03482059v12.69593245z"/></g></svg>