<svg height="19" viewBox="0 0 19 19" width="19" xmlns="http://www.w3.org/2000/svg"><g><path d="m9.49902574 19c1.61185076.0001427 3.19727326-.4095813 4.60727106-1.1906667.2349019-.1231756.3846183-.3639826.3911668-.629161.0065485-.2651783-.1310992-.5130831-.3596349-.6477056-.2285357-.1346224-.5120688-.1348207-.7407925-.000518-1.1929649.6596771-2.5338598 1.0056635-3.8970362 1.0055384-4.43190442 0-8.03763717-3.6061025-8.03763717-8.03846148 0-4.18584614 3.21700339-7.63020511 7.30694288-8.00143588v8.00241024c0 .40338462.32735104.73076922.73069429.73076922h8.6679828c.0175366 0 .0331248-.0087692.0506614-.0097436.0175367.0009744.0321506.0097436.0506615.0097436.4035513 0 .7306943-.32717652.7306943-.73076922 0-5.23815383-4.2614091-9.49999998-9.49902574-9.49999998-5.23761666 0-9.50097426 4.26184615-9.50097426 9.49999998 0 5.23815382 4.26140909 9.50000002 9.49902574 9.50000002zm8.00061536-10.23076925h-7.2699211v-7.27066665c3.8575618.35698166 6.912976 3.4127092 7.2699211 7.27066665z"/><path d="m16.748907 13.0585922c-.1961945.3938117-.4238354.7714527-.680748 1.1293159-.2375674.3299421-.1602678.788276.1726535 1.0237175s.7953937.1588336 1.0329612-.1711084c.3028835-.4223935.5741961-.8711866.8030853-1.3336684.1806275-.3634223.0297829-.8031515-.3369209-.9821626s-.8104035-.0295163-.9910311.333906z"/></g></svg>