<svg height="17" viewBox="0 0 17 17" width="17" xmlns="http://www.w3.org/2000/svg"><path d="m4.20572917 7.77901786h8.61067703c.3911993 0 .7083334.27182924.7083334.60714285 0 .33531362-.3171341.60714286-.7083334.60714286h-8.61067703c-.39119922 0-.70833334-.27182924-.70833334-.60714286 0-.33531361.31713412-.60714285.70833334-.60714285zm0 2.42857144h8.61067703c.3911993 0 .7083334.2718292.7083334.6071428 0 .3353137-.3171341.6071429-.7083334.6071429h-8.61067703c-.39119922 0-.70833334-.2718292-.70833334-.6071429 0-.3353136.31713412-.6071428.70833334-.6071428zm0 2.4285714h8.61067703c.3911993 0 .7083334.2718293.7083334.6071429s-.3171341.6071428-.7083334.6071428h-8.61067703c-.39119922 0-.70833334-.2718292-.70833334-.6071428s.31713412-.6071429.70833334-.6071429zm11.24479163-12.6361607c.8557552 0 1.5494792.59462054 1.5494792 1.328125v14.34375c0 .7335045-.693724 1.328125-1.5494792 1.328125h-13.90104163c-.85575521 0-1.54947917-.5946205-1.54947917-1.328125v-14.34375c0-.73350446.69372396-1.328125 1.54947917-1.328125zm-6.66276038 1.21428571v3.20116072l1.83903258-.90608482 1.8387669.90608482v-3.20116072zm6.79557288 13.77948659v-12.98754462c0-.43738951-.4172747-.79194197-.9320117-.79194197h-.559207v3.95963393c-.0002214.41319866-.3742878.75682255-.8590755.7891529h-.0121302l-.0279571.00117634h-.0885416l-.0289089-.00197321-.017487-.00138504-.0281784-.0029788-.0183945-.00237165-.0258763-.0039654c-.0069948-.00117634-.013724-.00216295-.0204974-.00354799l-.0233086-.00436384-.0232864-.00493304-.0195899-.00476228-.0258542-.00673549-.0165351-.0047433-.0279792-.00853795-.0142109-.0047433-.0293516-.01049219-.0128164-.00493303c-.0098717-.00386997-.0196573-.00789933-.0293515-.01208594l-.0130599-.00554018-.0272487-.01267411-.0084115-.0039654-1.9595599-.95902009-1.95885156.96061384-.00210286.00098661c-.01283854.00633705-.0258763.01227567-.03915755.01802455l-.00208073.00098661c-.01328125.00572991-.0265625.01127009-.0403086.0164308h-.0025677c-.0130599.00493304-.0261198.00969532-.03940105.01404018l-.00486979.00159375c-.01210807.00417411-.02445963.0079308-.03705469.0114788l-.00792447.00218192c-.01047006.00316852-.02257813.00614732-.03377865.00891741l-.01210807.00277009c-.00978386.00237165-.0198112.00455357-.02983854.00652678l-.01653516.00316853-.02611979.00455357-.02071875.00316853-.0233086.00277009-.02445963.00258035-.02027604.00178348-.02678386.00178349h-.11742838l-.01421094-.00100558c-.01152443-.00063802-.0230249-.00156177-.03448698-.00277009h-.00398437c-.14800001-.01493402-.28966082-.06008234-.41309115-.13165514l-.00398438-.00237165c-.01047005-.00673549-.02118359-.01328125-.03143229-.01978906l-.01445442-.00971429c-.00675131-.00436384-.01421094-.0094866-.02027605-.01366071-.0060651-.00415513-.01235156-.00910714-.01770833-.01305357-.00535677-.00398438-.0102487-.0077221-.01607031-.01208594-.00582162-.00436384-.01117839-.00891741-.01677865-.01347098l-.0163138-.01347098c-.00464844-.00394643-.00721615-.00650782-.0135026-.01206697-.0063086-.00554018-.01259506-.01108036-.01866016-.01682924l-.00929688-.00929687c-.00723828-.00713393-.01445442-.01424889-.0216927-.02178125l-.0048698-.00535045c-.00863281-.00910714-.01680078-.01821429-.02470312-.02770089v-.00119532c-.05532047-.06510315-.09869143-.13707953-.12860677-.21342968-.00442708-.0114788-.00863281-.02314733-.01261719-.03483483l-.00139453-.00436383c-.00325391-.01089063-.00628646-.02039621-.00907552-.03067969-.00092969-.00316853-.00256771-.00614732-.00256771-.00929688-.00232422-.00872768-.00420573-.01743638-.00628646-.02614509l-.00278906-.01405915c-.00141667-.00732366-.00398437-.01464732-.00398437-.02217969l-.00278907-.01821428-.00208073-.01978906c-.00070833-.00713393-.00070833-.01563393-.00188151-.02138282-.00115104-.00574888-.00115104-.01147879-.00115104-.01741741v-3.99150893h-5.02938802c-.51478125 0-.93203385.35455246-.93203385.79194197v12.98754462c0 .4373895.41727474.791942.93201172.791942h12.30264321c.514737 0 .9320117-.3545525.9320117-.791942z"/></svg>