<svg height="18" viewBox="0 0 18 18" width="18" xmlns="http://www.w3.org/2000/svg"><path d="m18 13.875c0 2.278125-1.8465 4.125-4.125 4.125-2.278125 0-4.12500001-1.8465-4.12499999-4.125v-2.999625c-.00009952-.2984985.11843448-.5847999.32950479-.7958702.2110703-.21107031.4973717-.32960431.7958702-.32950479h2.999625c2.278125 0 4.125 1.84649999 4.125 4.12499999zm-1.5 0c0-1.44675-1.17525-2.625-2.625-2.625h-2.625v2.625c0 1.44675 1.17525 2.625 2.625 2.625 1.44675 0 2.625-1.17525 2.625-2.625zm-16.5 0c0-2.2785 1.84687501-4.12500001 4.12500001-4.12499999h2.99962499c.2984985-.00009952.58479986.11843448.79587019.32950479.21107032.2110703.32960432.4973717.3295048.7958702v2.999625c0 2.2785-1.846875 4.125-4.12499998 4.125-2.2785 0-4.12500001-1.846875-4.12500001-4.125zm1.49999999 0c0 1.44975 1.17825 2.625 2.62500002 2.625 1.44975 0 2.62499999-1.17825 2.62499999-2.625v-2.625h-2.62499999c-1.44975001 0-2.625 1.17825-2.62500002 2.625zm16.50000001-9.74999999c0 2.27849999-1.846875 4.125-4.125 4.12499998h-2.999625c-.2984985.00009952-.5847999-.11843448-.7958702-.3295048-.21107031-.21107033-.32960431-.49737169-.32950479-.79587019v-2.99962499c0-2.2785 1.84687499-4.12500001 4.12499999-4.12500001 2.2785 0 4.125 1.84687501 4.125 4.12500001zm-1.5 0c0-1.44975001-1.17825-2.625-2.625-2.62500002-1.44975 0-2.625 1.17825-2.625 2.62500002v2.62499999h2.625c1.44975 0 2.625-1.17824999 2.625-2.62499999zm-16.5 0c0-2.278125 1.84649999-4.12500001 4.12500001-4.12500001 2.278125 0 4.125 1.84649999 4.12499998 4.12500001v2.99962499c.00009952.2984985-.11843448.58479986-.3295048.79587019-.21107033.21107032-.49737169.32960432-.79587019.3295048h-2.99962499c-2.278125 0-4.12500001-1.84649999-4.12500001-4.12499998zm1.49999999 0c0 1.44675 1.17525001 2.62499999 2.62500002 2.62499999h2.62499999v-2.62499999c0-1.44675-1.17525001-2.625-2.62499999-2.62500002-1.44675 0-2.625 1.17525001-2.62500002 2.62500002z"/></svg>