<svg height="17" viewBox="0 0 18 17" width="18" xmlns="http://www.w3.org/2000/svg"><path d="m18 8.38945683c0-.28029852-.1604755-.53622327-.4133459-.65809219l-2.4411725-1.17725383 2.4411725-1.17725382c.2528704-.12186892.4133459-.37779366.4133459-.65809219 0-.28029852-.1604755-.53622326-.4133459-.6580922l-8.27178176-3.98755124c-.19937863-.09749515-.43279751-.09749515-.63217614 0l-8.26935026 3.98755124c-.25287047.12186892-.41334594.37779367-.41334594.6580922 0 .28029854.16047549.53622327.41334594.65809219l2.4411725 1.17725382-2.4411725 1.17725383c-.25287047.12186892-.41334594.37779367-.41334594.65809219s.16047549.53622327.41334594.65809221l2.5505876 1.22843876-2.5505876 1.2308761c-.25287047.121869-.41334594.3777937-.41334594.6580922 0 .2802986.16047549.5362233.41334594.6580922l8.26935026 3.9875513c.09968931.0487476.20910441.0731213.31608808.0731213s.21639875-.0243737.31608806-.0731213l8.26935026-3.9875513c.2528705-.1218689.4133459-.3777936.413346-.6580922 0-.2802985-.1604755-.5362232-.413346-.6580922l-2.5505876-1.2284387 2.5505876-1.22843879c.2553019-.12186892.4157774-.37779367.4157774-.66052958zm-9.00121572-6.84659622 6.58678912 3.17590419-6.58678912 3.1759042-6.58678914-3.1759042zm6.58678912 10.62209549-6.58678912 3.1759042-6.58678914-3.1759042 2.23206808-1.0773213 4.03863298 1.9474655c.09968931.0487475.20910441.0731213.31608808.0731213s.21639875-.0243738.31608806-.0731213l4.03863296-1.9474655zm-6.58678912-.5995951-6.58678914-3.17590417 2.12508443-1.02369898 4.14561663 1.99865038c.09968931.04874758.20910441.07312135.31608808.07312135s.21639875-.02437377.31608806-.07312135l4.14561666-1.99865038 2.1250844 1.02369898z" /></svg>