<svg height="17" viewBox="0 0 17 17" width="17" xmlns="http://www.w3.org/2000/svg"><path d="m5.52287552 5.63288959c.21154015-.10610811.46212678-.09891636.66724988.01914984l4.5035826 2.6036688 2.6884786-2.45933577c.1356251-.12662008.3175675-.19134052.5025749-.17877565.1850075.01256486.3565554.10129276.4738625.24509084.2514583.30001414.2238333.75535475-.065875 1.02026085l-2.944187 2.69338934c-.0756117.06975938-.165902.1216286-.2642083.1517802-.2155059.11776408-.4766434.11494384-.6895624-.00744715l-4.48516585-2.59267538-1.95677049 2.17953534c-.1218595.13922191-.29634048.22103461-.4811682.22561583-.18482773.00458121-.36313769-.06848706-.49172746-.20150123-.27624995-.2769634-.28899995-.73762341-.02904167-1.02735337l2.20822879-2.45933577c.09546128-.1078336.22294943-.18216364.3637291-.21206672zm2.29004126 8.19754941h-.02124999v-.7092532h-6.72810299c-.28215317.0006604-.55295035-.1112291-.75252976-.3109347-.19957941-.1997055-.31150421-.4707799-.31103255-.7532999v-9.57456471c-.000472-.2824876.11146404-.55352575.31105377-.75317507.19958972-.19964933.47038801-.31145981.75250854-.31070486h6.72810299v-.70996253c0-.39150781.31449994-.70854403.70833321-.70854403.39135409 0 .70833321.31845472.70833321.70854403v.70996253h6.72810299c.2821532-.00066049.5529504.11122907.7525298.31093463.1995794.19970557.3115042.47077989.3110325.75329994v9.57456467c.000472.2824876-.111464.5535258-.3110538.7531751-.1995897.1996493-.470388.3114598-.7525085.3107049h-6.72810299v.6092485c.0244375.0163128.04816666.0343988.07083331.0542579l3.02387448 1.9692417c.2964374.2578136.3279583.7064163.0715417 1.0018203-.2585417.2978864-.7047916.3262565-1.0008749.0687976l-2.79224948-1.8181708-2.87335367 1.8025672c-.14376184.1217209-.33003996.1810604-.51761436.1648875-.1875744-.0161728-.36097947-.1065245-.48184379-.2510618-.12079933-.1443964-.17933936-.3309416-.16273314-.5185696s.10699736-.3609576.25127479-.4818321l3.01643697-1.8919332zm-6.39624888-10.28275407v7.44432247c0 .3950541.31662494.7106718.70727072.7106718h12.75212278c.1879522-.0001877.3681162-.0752015.5007857-.208509.1326696-.1333076.2069552-.313967.206485-.5021628v-7.44432247c.0007537-.18828199-.0734406-.36910616-.2061716-.50247543s-.3130599-.2082922-.5010991-.20819636h-12.75212278c-.18795217.0001877-.36811617.07520145-.50078577.20850902-.13266959.13330757-.20695516.31396696-.20648495.50216277z"/></svg>