<svg height="18" viewBox="0 0 18 18" width="18" xmlns="http://www.w3.org/2000/svg"><g><path d="m8.8199661 8.12903226c-.21937982 0-.43878051-.08373479-.60625796-.25107917l-2.34958874-2.34952074c-.3349549-.33496005-.3349549-.87790049 0-1.21273531.33437058-.33496006.87754013-.33481396 1.21249506-.00012523l2.34958872 2.34952075c.3349549.33496005.3349549.87787961 0 1.21269357-.16718529.16749048-.38683639.25124613-.60623708.25124613z"/><path d="m9.18013082 8.12903226c-.21940996 0-.43881992-.08372941-.60629949-.25106306-.33500091-.33479247-.33500091-.87769804 0-1.21265748l2.34936877-2.34962037c.3344165-.33495942.8776607-.33479247 1.2126616-.00014609.3349801.33479247.3349801.87769804 0 1.21263662l-2.34938964 2.34962037c-.16720825.16747973-.38693128.25123001-.60634124.25123001z"/><path d="m12.1211291 9.29032258h-6.04870977c-.46767088 0-.84661288-.38998682-.84661288-.87097835 0-.48097031.378942-.87095713.84661288-.87095713h6.04868907c.4676915 0 .8466335.38998682.8466335.87095713.0000206.48099153-.3789214.87097835-.8466128.87097835z"/><path d="m12.1211291 12.1935484h-6.04870977c-.46767088 0-.84661288-.3899916-.84661288-.8709678 0-.4809973.378942-.8709677.84661288-.8709677h6.04868907c.4676915 0 .8466335.3899704.8466335.8709677.0000206.480955-.3789214.8709678-.8466128.8709678z"/><path d="m8.99998939 14.3225806c-.4811187 0-.87095713-.3783792-.87095713-.8451004v-5.08401325c0-.46668006.38983843-.84507985.87095713-.84507985s.87097835.37839979.87097835.84507985v5.08399265c0 .4667212-.38983843.845121-.87097835.845121z"/><path d="m8.99958269 17.9999999c-1.22363833.0001437-2.44507877-.2524327-3.60002738-.7564157-4.54921497-1.9852063-6.63398082-7.29801358-4.64727857-11.84328083.9619642-2.20180305 2.72474699-3.89757067 4.96348956-4.7746303 2.23849607-.87730591 4.6849306-.83050969 6.8882396.13094732.4272155.18640493.6222746.68336844.4357196 1.11024023-.1862469.42658446-.6832409.62228707-1.1109905.43522534-1.7903902-.78137367-3.77832486-.81870802-5.59673317-.10635877-1.8189835.71275975-3.25113539 2.09049782-4.03287123 3.8794474-1.61416733 3.69308353.0796587 8.00982921 3.77598316 9.62282091 1.7895685.7809632 3.77805783.8187286 5.59675374.1063793 1.8186959-.712616 3.2508478-2.0903746 4.0327069-3.8794679 1.1376324-2.6021775.6533123-5.65647213-1.2343609-7.78130771-.3093502-.34834448-.2774497-.88143138.0711752-1.1905327.348892-.30893713.8818742-.27724705 1.1914914.0708306 2.3225506 2.61494384 2.9187174 6.37362416 1.5184249 9.57602471-.9620875 2.2017004-2.724747 3.8974475-4.9632226 4.7744866-1.0651425.4174099-2.1777968.6255915-3.28849971.6255915z"/></g></svg>