<svg height="20" viewBox="0 0 18 20" width="18" xmlns="http://www.w3.org/2000/svg"><path d="m5.65398348 3.08963597c.56921162-.87190747 1.24687542-1.52158474 1.99146948-1.87445369.04401811-.67850032.60744588-1.21518228 1.29602796-1.21518228.68856179 0 1.25198958.53668196 1.29604828 1.21518228.8112199.38443609 1.5429677 1.12117198 2.1415856 2.11375819 2.4363792-.33518485 4.4294722.18810192 5.2435536 1.60037045.7761515 1.34651214.3177259 3.21862827-1.0336646 5.07643448.6725902 1.1082037 1.010651 2.1975443.941123 3.1525873.3957977.4067343.4915052 1.0421424.1940126 1.5582335-.297513.5160912-.8947509.7507613-1.4443177.6108129-.8583633.583616-2.0934681.8300145-3.5310278.746391-.9296568 1.8972601-2.2907886 3.0941688-3.80729269 3.0941688-1.45056826 0-2.75893509-1.0950523-3.68359956-2.8506567-1.44042117.0847821-2.67802214-.1614538-3.53772488-.7459844-.54956683.1399483-1.14682503-.0947218-1.44429736-.6108129-.29751291-.5160912-.20180548-1.1514992.19401252-1.5582335-.07506823-1.0309628.3248492-2.2184603 1.10781958-3.41721873-1.47938602-1.93014844-2.00764395-3.89918157-1.20036112-5.29964038.81775464-1.41865107 2.82521595-1.94029139 5.2766128-1.59575632zm-.61783651 1.12531859c-1.71506253-.19001261-3.05011623.15950246-3.58671507 1.09039758-.53968356.93626133-.16706182 2.27901306.86820601 3.68034591.51048021-.61624009 1.11624168-1.22473576 1.80460052-1.80546537.20072989-1.0947068.51350405-2.09778151.91390854-2.96527812zm8.19729263 10.69550664c.8620772.0164645 1.5950427-.1265937 2.1327577-.4358419-.1121255-.3399616-.0844645-.7245197.1083101-1.0589727.1927949-.3344531.5114746-.5507073.8614683-.6234154-.0012988-.5484104-.1907451-1.1641017-.5416521-1.8097949-.5775931.6407336-1.2566369 1.2681736-2.0226007 1.8593307-.1315064.7346016-.313383 1.4285501-.5382833 2.0686942zm.4463709-8.1385483c.8574703.70081887 1.5941497 1.44560408 2.1871055 2.19825566.8933708-1.30655013 1.1899502-2.54258746.6836709-3.42089779-.5374309-.93233831-1.875752-1.2814875-3.5946501-1.08950321.3000902.69738369.5452644 1.47509791.7238737 2.31214534zm.2780913 1.89508513c.0382191.45710491.0572853.91561391.0571485 1.37431887 0 .3428276-.0105124.6812647-.0309893 1.0142746.4146916-.3680529.7903372-.7425899 1.1222488-1.11710663-.3258842-.42283295-.7109666-.84981251-1.148408-1.27148684zm-9.91042719 3.78935717c-.61850622-.4908252-1.17746927-1.0049244-1.66877146-1.5295527-.46128708.7545216-.71315835 1.4767037-.71466012 2.109327.350014.0727284.66869376.2889826.86146833.6234357.19279487.3344531.22045586.7190111.10833042 1.0589727.53185.305874 1.25472927.4491762 2.10462992.4363298-.30705119-.8151151-.54278857-1.7243015-.69101738-2.6985125zm-.16691976-1.7663367c-.00841872-.216131-.01262042-.4324062-.0126027-.6487016 0-.33408722.00996445-.66398717.02942659-.98878515-.29099849.28900292-.55713657.57997752-.79628338.86993579.24012093.25717156.50045488.51371296.77945949.76753066zm3.10166348-7.33898307c.75332057.18881335 1.53326712.45076163 2.32131105.78509276.60007909-.22771836 1.19256812-.4127713 1.76916682-.55481325-.411201-.58418511-.8809913-1.00403005-1.3873721-1.2138204-.21071464.1476724-.4671724.23430417-.74382289.23430417-.27667077 0-.53312853-.08663177-.74382288-.23430417-.43713698.18110958-.84701887.51873362-1.21548029.98354089zm-.67606056 1.08751121c-.22847206.46194123-.42877578.98345959-.59510701 1.55242011.32117785-.21330832.64889083-.41657692.98266528-.609512.32633769-.18878451.65832093-.36760498.99549121-.53621445-.47326066-.16539716-.93619157-.3011582-1.38304948-.40669366zm5.73980753 1.14979176c-.106991-.32000091-.2252047-.62266328-.3534437-.90554791-.2638246.06234154-.53323.13521223-.8070799.21851044.3949165.21504399.7820065.44420374 1.1605236.68703747zm.4553409 1.84361831c-.5605866-.42084094-1.1712187-.8254613-1.824083-1.20300668-.4689583-.27119686-.9391139-.5164977-1.40549482-.73537401-.64308249.27552641-1.29714415.6023977-1.94889226.97929264-.72196603.41750739-1.39230363.86812673-2.00039892 1.33716192-.10126804.70709978-.15565649 1.45603161-.15565649 2.23128632 0 .6088209.03354631 1.2014009.09700626 1.7702394.49753251.3610403 1.03195988.7088276 1.59812737 1.0362477.81590786.4717996 1.63544839.8652403 2.43256383 1.1777204.6091303-.2658306 1.22743353-.5774773 1.84366683-.9338018.5053864-.2922552.9854456-.6007512 1.4365856-.9203863.0921762-.6772197.1415114-1.3916777.1415114-2.1300194 0-.91495911-.0757379-1.79322879-.2149155-2.60936019zm-4.90149489 7.22389409c-.45580765-.2149939-.91267059-.4539325-1.36703735-.7166736-.22630169-.1308433-.44984388-.2664172-.67047966-.4066326.12947697.537556.28789347 1.0398657.4710283 1.4981888.49893281-.0836031 1.02412632-.2088756 1.56648871-.3748826zm4.34480479.1272442c.1018768-.2768476.1950272-.5682287.2786393-.8723546-.3897145.2403061-.7880643.4662713-1.1942526.6774433.3131395.0795175.618973.1445421.9156133.1949113zm-.5087755 1.1320061c-.6771565-.1215325-1.3835163-.3063618-2.10430523-.5538579-.94280747.3698619-1.86897371.6349811-2.74645417.7940161.64580192 1.0712093 1.46503803 1.7117599 2.35642001 1.7117599.95612047 0 1.82921739-.7370001 2.49431909-1.9519181z"/></svg>