<?xml version="1.0" encoding="utf-8"?>
<!-- Generator: Adobe Illustrator 22.1.0, SVG Export Plug-In . SVG Version: 6.00 Build 0)  -->
<svg version="1.1" xmlns="http://www.w3.org/2000/svg" xmlns:xlink="http://www.w3.org/1999/xlink" x="0px" y="0px"
	 viewBox="0 0 20 20" style="enable-background:new 0 0 20 20;" xml:space="preserve">
<path d="M4,16.1c0,0,0.2-0.6,0.4-1.4c0.4-1.5,0.7-2,0.9-2.2C5.4,12.5,6,12.2,6.7,12c1.2-0.4,1.9-0.7,2.2-1C8.9,11,9,10.7,9,10.5
	C9,10,9,10,8.7,9.7C8.6,9.5,8.3,9.1,8.3,8.9C8.2,8.6,8.1,8.4,8,8.4c-0.2,0-0.5-1.1-0.3-1.2c0,0,0-0.2,0-0.5C7.6,6.2,7.8,5.4,8,5.1
	C8.1,5,8.2,4.7,8.3,4.6c0.3-0.7,1-0.9,2.2-0.6c0.5,0.1,1,0.1,1.3,0c0.2-0.1,0.4,0.4,0.4,0.8c0,0.2,0.1,0.5,0.1,0.7
	c0.1,0.3,0.1,0.5,0.1,1c0,0.4,0,0.7,0,0.7c0.2,0.1,0,1.1-0.3,1.2c-0.1,0-0.1,0.1-0.1,0.2c0,0.2-0.3,0.7-0.5,1
	c-0.3,0.3-0.3,0.3-0.2,0.8c0.1,0.7,0.4,0.9,2.4,1.6c1.8,0.6,1.7,0.4,2.2,2.8c0.2,0.7,0.3,1.2,0.3,1.3c0,0-2.7,0-6,0
	C6.7,16.2,4,16.1,4,16.1z"/>
</svg>
