<svg height="32" viewBox="0 0 32 32" width="32" xmlns="http://www.w3.org/2000/svg"><g fill="none" fill-rule="evenodd"><circle cx="16" cy="16" fill="#5c6bc0" r="16"/><g fill="#fff" fill-rule="nonzero" transform="translate(8 10)"><path d="m.72372248 14.1666667c-.39970089 0-.72372247-.3321678-.72372248-.7419175v-12.68283173c0-.4097497.32402159-.74191746.72372248-.74191747h15.55255502c.3997009.00000001.7237225.33216777.7237225.74191747v9.69698493c0 .4097497-.3240216.7419174-.7237225.7419174h-10.6466815l-4.52459239 2.8745593c-.11663994.0741917-.24883991.1112876-.38128113.1112876zm.72372249-12.68283176v10.60830686l3.59485022-2.28374561c.11449675-.072789.24655528-.11133399.38128114-.11128763h10.12897867v-8.21327362z"/><path d="m3.77777778 5.66666666c-.00000001.3374175.18001008.64920413.47222221.81791289.29221214.16870875.65223233.16870875.94444446 0 .29221213-.16870876.47222222-.48049539.47222222-.81791289 0-.52160226-.42284218-.94444444-.94444445-.94444444-.52160226 0-.94444444.42284218-.94444444.94444444z"/><path d="m7.55555556 5.66666665c-.00000002.3374175.18001007.64920414.47222221.81791289.29221213.16870876.65223233.16870876.94444446 0 .29221214-.16870875.47222223-.48049539.47222221-.81791289 0-.52160226-.42284218-.94444443-.94444444-.94444443s-.94444444.42284217-.94444444.94444443z"/><path d="m12.2777778 5.66666667c-.0000458.33740225.1799543.64919436.4721852.81790869.292231.16871433.6522875.16871433.9445184 0s.472231-.48050644.4721853-.81790869c.0000457-.33740226-.1799544-.64919437-.4721853-.8179087s-.6522874-.16871433-.9445184 0c-.2922309.16871433-.472231.48050644-.4721852.8179087z"/></g></g></svg>