<svg height="32" viewBox="0 0 32 32" width="32" xmlns="http://www.w3.org/2000/svg"><g fill="none" fill-rule="evenodd"><circle cx="16" cy="16" fill="#c0c4cc" r="16"/><path d="m5.84257341 8.6158919c-1.79925238-1.13472462-2.61233407-3.27582416-1.99910283-5.26426583.61323123-1.98844168 2.50702672-3.35162607 4.65622578-3.35162607 2.14919904 0 4.04299454 1.36318439 4.65622574 3.35162607.6132313 1.98844167-.1998504 4.12954121-1.9991028 5.26426583 3.3934415 1.07688481 5.8431807 4.1609844 5.8431807 7.7978888h-1.214546c0-3.8848751-3.2616632-7.0346313-7.285454-7.0346313-4.02379081 0-7.28545403 3.1497562-7.28545403 7.0346313h-1.21454597c0-3.6369044 2.44973923-6.72100399 5.84257341-7.7978888zm2.65742659-.40918106c2.0120885-.00032372 3.6430307-1.57498477 3.6430306-3.51731566 0-1.42267473-.8878096-2.70525273-2.2494183-3.249632-1.36160874-.54437927-2.92885-.24334521-3.97087537.76272157-1.04202536 1.00606679-1.35360964 2.51902311-.78945238 3.8333351.56415727 1.314312 1.89294624 2.1711281 3.36671545 2.17089099zm.00060727 8.79328916c-.91090948 0-1.82181896-.9883657-1.82181896-2.9310964s.81556762-4.10353493 1.82181896-4.10353493 1.82181893 2.16080423 1.82181893 4.10353493-.91090945 2.9310964-1.82181893 2.9310964zm0-1.1724386c.3036365 0 .60727299-.4631132.60727299-1.7586578s-.27145103-2.9310964-.60727299-2.9310964c-.33521469 0-.60727298 1.6355518-.60727298 2.9310964s.30363649 1.7586578.60727298 1.7586578z" fill="#fff" fill-rule="nonzero" transform="translate(8 7)"/></g></svg>