<svg height="32" viewBox="0 0 32 32" width="32" xmlns="http://www.w3.org/2000/svg"><g fill="none" fill-rule="evenodd"><circle cx="16" cy="16" fill="#00c192" r="16"/><g fill="#fff" fill-rule="nonzero" transform="translate(7 7)"><path d="m9.75210893 14.7262327v-7.25956603h-1.50365406v7.25956603l-1.72917398-1.7394601-1.05261422 1.0588758 3.53333333 3.5543516 3.5333333-3.5543516-1.0526142-1.0588758z"/><path d="m14.175 4.51777993c-.3751875-2.55988705-2.5498125-4.51777993-5.175-4.51777993s-4.8751875 1.95789288-5.175 4.51777993c-2.1751875.15078091-3.825 1.95789288-3.825 4.14111004 0 2.25888993 1.8748125 4.14111003 4.1248125 4.14111003h1.125v-1.5061149h-1.125c-1.5001875 0-2.6251875-1.129445-2.6251875-2.63555986 0-1.50611488 1.125-2.63555986 2.6251875-2.63555986h.0748125l1.0501875.52688608v-1.28022589c0-2.10810906 1.6498125-3.76500485 3.7501875-3.76500485s3.7501875 1.65633107 3.7501875 3.76500485v1.28022589l1.0501875-.52688608h.0748125c1.5001875 0 2.6251875 1.12944498 2.6251875 2.63555986 0 1.50611486-1.125 2.63555986-2.6251875 2.63555986h-1.125v1.5061149h1.125c2.25 0 4.1248125-1.8822201 4.1248125-4.14111003 0-2.18378188-1.6498125-3.99089385-3.825-4.14111004z"/></g></g></svg>