<svg height="32" viewBox="0 0 32 32" width="32" xmlns="http://www.w3.org/2000/svg"><g fill="none" fill-rule="evenodd"><circle cx="16" cy="16" fill="#00a9f3" r="16"/><path d="m14.8075956 13.7999481-2.7932452-2.7376185c2.341028-2.63904624 2.1888446-6.65087134-.3454013-9.10539393-2.69167736-2.60924756-6.97204986-2.60924756-9.66372726 0-1.28178067 1.24168836-2.00522184 2.94914705-2.00522184 4.73270477 0 1.78355773.72344117 3.49101646 2.00522184 4.73270476 2.44494275 2.3499235 6.23082755 2.5940032 8.95790726.577525l2.8232801 2.7676197c.1262554.1336997.2972629.2164388.4805583.2325101.1896966-.0006544.3721151-.0730042.5105932-.2025088.1365725-.1282134.2164857-.3054206.2221199-.4925499.0056343-.1871292-.0634731-.3688132-.192085-.5049932zm-13.36552803-7.11030766c.04937708-2.93467538 2.46054179-5.27949782 5.3987723-5.25022716 2.93531427-.02512368 5.34189793 2.3185033 5.39126353 5.25022716-.0493656 2.93172386-2.45594926 5.27535086-5.39126353 5.25022716-2.93823051.0292707-5.34939522-2.31555178-5.3987723-5.25022716z" fill="#fff" fill-rule="nonzero" transform="translate(9 9)"/></g></svg>