<svg height="32" viewBox="0 0 32 32" width="32" xmlns="http://www.w3.org/2000/svg"><g fill="none" fill-rule="evenodd"><circle cx="16" cy="16" fill="#fb9678" r="16"/><path d="m14.0471832 4.4782128c-.6170505-1.06103248-1.5085233-1.94122077-2.5832316-2.55053214.3487475-.44691788.8869108-.70993597 1.4583752-.71275588 1.0193546.00044694 1.8455917.81609573 1.8460445 1.8223872-.0007236.56479019-.2671999 1.09719768-.7211881 1.44090082m-6.04764167 9.0884474c-3.16699186 0-5.74324948-2.5432425-5.74324948-5.66964904 0-3.1260015 2.57625762-5.66964905 5.74324948-5.66964903 3.16699187.00000001 5.74324947 2.54364755 5.74324947 5.66964903 0 3.12640654-2.5762576 5.66964904-5.74324947 5.66964904m-6.76882974-10.52934822c0-1.0047428.82784838-1.8223872 1.84604446-1.8223872.57760681 0 1.1141904.2680934 1.46083653.71113598-1.0763471.60973251-1.96903639 1.49112166-2.58651341 2.55377194-.4554423-.34315738-.72199521-.87692392-.72036758-1.44252072m11.69161501-3.03731198c-1.0528546.00367051-2.0313543.53632987-2.596359 1.41336251-.74662468-.26369295-1.53345927-.39929226-2.32642627-.40092518-.81841306 0-1.60072568.14660092-2.33011836.40254508-.56162552-.87895772-1.53996859-1.41290145-2.59266692-1.41498241-1.69671998 0-3.07674078 1.36274064-3.07674078 3.03731198-.0033512 1.0410572.53779294 2.01010586 1.43129981 2.56308635-.26691374.73709704-.40413257 1.51383683-.40571955 2.29661283 0 2.13097814.98127521 4.03517024 2.52128652 5.29788204l-1.10557552 1.890423c-.11167638.1880524-.11272199.4207587-.00273992.6097817.10998208.1890231.31412832.3053799.53494316.3049006.22081483-.0004793.42444078-.1177213.53357976-.3072199l1.05757837-1.8082131c1.04667532.5882666 2.23045258.8974108 3.43487343.8970195 1.24997722 0 2.42036937-.3288396 3.43487337-.8970195l1.0575784 1.8082131c.0813692.1397651.2157752.2417833.3735078.2835039.1577327.0417206.3258023.0197078.4670578-.0611726.2943014-.167751.3951331-.5392564.2252174-.8297937l-1.1059857-1.890423c1.5400113-1.2627118 2.5216967-3.1669039 2.5216967-5.29788204 0-.80590011-.1476836-1.57616244-.4053093-2.29499293 1.3726981-.8564672 1.8336016-2.61933648 1.0522453-4.02464088-.540308-.97253165-1.5745013-1.57714791-2.6980965-1.57737735m-2.4613927 7.69452371h-1.84604442v-3.44228693c0-.33549222-.27550075-.6074624-.61534815-.6074624-.33984741 0-.61534816.27197018-.61534816.6074624v3.64477438c0 .55805546.45945996 1.01243733 1.02558026 1.01243735h2.05116047c.3398474 0 .6153482-.27197018.6153482-.6074624s-.2755008-.6074624-.6153482-.6074624" fill="#fff" fill-rule="nonzero" transform="translate(8 8)"/></g></svg>